<svg xmlns="http://www.w3.org/2000/svg" width="21" height="24" viewBox="0 0 21 24">
    <path id="Icon" d="M1431.5,45.5,1433,65h-21l1.5-19.5h4.5a4.906,4.906,0,0,1,1.383-3.176,4.331,4.331,0,0,1,6.234,0A4.907,4.907,0,0,1,1427,45.5Zm-11.062-2.109a3.529,3.529,0,0,0-.937,2.109h6a3.534,3.534,0,0,0-.937-2.109,2.834,2.834,0,0,0-4.125,0ZM1415,47l-1.5,16.5h18L1430,47Zm4.8,1.945a1.472,1.472,0,1,1-1.055-.445A1.443,1.443,0,0,1,1419.8,48.945Zm7.5,0a1.472,1.472,0,1,1-1.055-.445A1.443,1.443,0,0,1,1427.3,48.945Z" transform="translate(-1412 -41)"/>
</svg>
