<svg xmlns="http://www.w3.org/2000/svg" width="24" height="24" viewBox="0 0 24 24">
  <path id="Icon" d="M1487.5,55a11.53,11.53,0,0,1-.281,2.555,11.311,11.311,0,0,1-.773,2.379,11.7,11.7,0,0,1-1.242,2.121,12.951,12.951,0,0,1-1.641,1.828h.024l-.4.328a.378.378,0,0,1-.059.047.7.7,0,0,1-.082.047,2.336,2.336,0,0,1-.258.223q-.141.105-.3.223a.6.6,0,0,0-.105.07c-.039.032-.082.063-.129.094-.109.078-.223.152-.34.223s-.231.137-.34.2a.362.362,0,0,1-.094.07l-.094.047-.4.223q-.188.105-.4.2a.1.1,0,0,0-.047.012.169.169,0,0,0-.047.035,12.631,12.631,0,0,1-1.395.527,12.982,12.982,0,0,1-1.465.363h-.094q-.234.046-.469.082t-.469.059h-.14q-.235.023-.481.035c-.164.008-.324.012-.48.012q-.258,0-.492-.012t-.492-.035h-.117q-.235-.023-.48-.059t-.48-.082h-.07a11.728,11.728,0,0,1-1.5-.375,13.869,13.869,0,0,1-1.406-.539c-.016-.016-.028-.023-.035-.023s-.02-.008-.035-.023q-.211-.094-.41-.2t-.41-.223a.291.291,0,0,0-.07-.047.259.259,0,0,1-.07-.047q-.188-.117-.375-.223a3.7,3.7,0,0,1-.351-.223.573.573,0,0,0-.106-.082.53.53,0,0,1-.105-.082l-.328-.234a2.408,2.408,0,0,1-.3-.258.2.2,0,0,0-.047-.035.105.105,0,0,0-.047-.012l-.375-.328v-.023a12.666,12.666,0,0,1-1.617-1.8,12.053,12.053,0,0,1-1.231-2.133,12.047,12.047,0,0,1-.105-9.562,12.308,12.308,0,0,1,6.4-6.4,12.071,12.071,0,0,1,9.328,0,12.308,12.308,0,0,1,6.4,6.4A11.683,11.683,0,0,1,1487.5,55Zm-23.133,0a10.842,10.842,0,0,0,2.18,6.586,11.991,11.991,0,0,0,1.523,1.688,1.318,1.318,0,0,0,.176-.106q.082-.058.152-.105l3.445-1.875a1.11,1.11,0,0,0,.375-.363.923.923,0,0,0,.141-.5V59.078q-.211-.281-.645-1.019a7.264,7.264,0,0,1-.715-1.77,1.626,1.626,0,0,1-.586-1.242V53.5a1.5,1.5,0,0,1,.106-.551,1.583,1.583,0,0,1,.293-.48V50.43a6.563,6.563,0,0,1,.047-.961,2.814,2.814,0,0,1,.774-1.594,3.823,3.823,0,0,1,1.582-1.031,7.6,7.6,0,0,1,4.57,0,3.827,3.827,0,0,1,1.582,1.031,2.812,2.812,0,0,1,.773,1.594,6.61,6.61,0,0,1,.047.961v2.039a1.593,1.593,0,0,1,.293.48,1.5,1.5,0,0,1,.105.551v1.547a1.56,1.56,0,0,1-.246.856,1.493,1.493,0,0,1-.668.574,8.67,8.67,0,0,1-.5,1.172,10.628,10.628,0,0,1-.645,1.078l-.141.188c-.047.062-.086.117-.117.164v1.289a.982.982,0,0,0,.141.515.872.872,0,0,0,.4.352l3.68,1.851c.062.032.129.067.2.105a1.78,1.78,0,0,1,.2.129,11.292,11.292,0,0,0,1.547-1.688,10.7,10.7,0,0,0,1.184-1.992,12.256,12.256,0,0,0,.762-2.227,11.207,11.207,0,0,0,.258-2.414,10.713,10.713,0,0,0-.891-4.336,11.144,11.144,0,0,0-5.906-5.906,11,11,0,0,0-8.672,0,11.145,11.145,0,0,0-5.906,5.906,10.711,10.711,0,0,0-.891,4.336Z" transform="translate(-1463.5 -43)"/>
</svg>
