<svg width="35" height="35" viewBox="0 0 35 35" fill="none" xmlns="http://www.w3.org/2000/svg">
<path d="M2.91659 13.1249H7.29159V30.6249H2.91659C2.52981 30.6249 2.15888 30.4713 1.88539 30.1978C1.6119 29.9243 1.45825 29.5534 1.45825 29.1666V14.5833C1.45825 14.1965 1.6119 13.8255 1.88539 13.5521C2.15888 13.2786 2.52981 13.1249 2.91659 13.1249ZM10.6355 11.2393L19.9689 1.90596C20.0929 1.78156 20.2577 1.70612 20.4329 1.69353C20.6082 1.68093 20.7821 1.73203 20.9226 1.83742L22.1666 2.77075C22.5121 3.03011 22.773 3.38595 22.9165 3.79342C23.0601 4.20088 23.0797 4.64171 22.973 5.06033L21.2916 11.6666H30.6249C31.3985 11.6666 32.1403 11.9739 32.6873 12.5209C33.2343 13.0678 33.5416 13.8097 33.5416 14.5833V17.6516C33.542 18.0327 33.4677 18.4103 33.3228 18.7628L28.8093 29.7222C28.6992 29.9894 28.5122 30.2179 28.272 30.3786C28.0318 30.5393 27.7493 30.625 27.4603 30.6249H11.6666C11.2798 30.6249 10.9089 30.4713 10.6354 30.1978C10.3619 29.9243 10.2083 29.5534 10.2083 29.1666V12.2703C10.2083 11.8836 10.362 11.5127 10.6355 11.2393Z" fill="white"/>
</svg>
