<svg width="24" height="21" viewBox="0 0 24 21" fill="none" xmlns="http://www.w3.org/2000/svg">
<path d="M21.0951 2.67899C20.5631 2.1467 19.9314 1.72445 19.2361 1.43636C18.5408 1.14828 17.7956 1 17.043 1C16.2904 1 15.5452 1.14828 14.8499 1.43636C14.1547 1.72445 13.523 2.1467 12.9909 2.67899L11.8868 3.78315L10.7826 2.67899C9.70792 1.60431 8.25034 1.00056 6.73051 1.00056C5.21069 1.00056 3.75311 1.60431 2.67843 2.67899C1.60375 3.75366 1 5.21124 1 6.73107C1 8.25089 1.60375 9.70847 2.67843 10.7832L3.78259 11.8873L11.8868 19.9915L19.9909 11.8873L21.0951 10.7832C21.6274 10.2511 22.0496 9.61942 22.3377 8.92415C22.6258 8.22888 22.7741 7.48366 22.7741 6.73107C22.7741 5.97848 22.6258 5.23326 22.3377 4.53799C22.0496 3.84272 21.6274 3.21102 21.0951 2.67899V2.67899Z" stroke="black" stroke-width="2" stroke-linecap="round" stroke-linejoin="round"/>
</svg>
