<svg width="23" height="27" viewBox="0 0 23 27" fill="none" xmlns="http://www.w3.org/2000/svg">
<path d="M12.0433 0C12.3856 0.0863724 12.7344 0.151152 13.0661 0.263436C15.0456 0.934981 16.3873 2.82006 16.4001 4.93618C16.4022 5.23201 16.4001 5.52783 16.4001 5.85173C16.5213 5.85173 16.6127 5.85173 16.7063 5.85173C17.8311 5.85173 18.9559 5.84957 20.0807 5.85173C20.642 5.85173 20.9205 6.08061 20.9865 6.64204C21.114 7.73033 21.2182 8.82294 21.333 9.91339C21.4649 11.1874 21.5988 12.4614 21.7307 13.7354C21.8604 14.9834 21.9858 16.2315 22.1155 17.4796C22.2452 18.7363 22.3771 19.993 22.5068 21.2498C22.6365 22.4978 22.764 23.7459 22.8937 24.994C22.932 25.3697 22.9809 25.7433 23 26.1212C23.0256 26.6588 22.696 26.9978 22.1644 26.9978C15.0605 26.9978 7.9566 26.9978 0.852689 26.9978C0.295603 26.9978 -0.0424759 26.6502 0.00430229 26.0801C0.0808485 25.1624 0.187163 24.2469 0.280719 23.3313C0.410422 22.066 0.542252 20.8006 0.674081 19.5353C0.803785 18.2872 0.931361 17.0391 1.06106 15.791C1.19077 14.5343 1.3226 13.2776 1.4523 12.0209C1.58413 10.7555 1.71383 9.49016 1.84566 8.22481C1.90095 7.69146 1.9541 7.16027 2.01577 6.62908C2.07743 6.11085 2.36448 5.85389 2.88329 5.85389C4.0166 5.85173 5.14991 5.85389 6.28322 5.85389C6.37677 5.85389 6.47033 5.85389 6.59578 5.85389C6.59578 5.56238 6.59578 5.29247 6.59578 5.02471C6.60428 2.67538 8.11182 0.714731 10.3487 0.138196C10.5485 0.0863724 10.7505 0.0475048 10.9504 0.00215931C11.3161 0 11.6797 0 12.0433 0ZM3.5233 7.47985C2.90455 13.459 2.29006 19.4057 1.67343 25.3632C8.24577 25.3632 14.782 25.3632 21.3288 25.3632C20.71 19.3863 20.0934 13.4309 19.4789 7.48201C18.4285 7.48201 17.4271 7.48201 16.4022 7.48201C16.4022 8.05854 16.4043 8.6178 16.4022 9.17922C16.4001 9.67802 16.0662 10.0322 15.607 10.0322C15.1519 10.0322 14.8139 9.67802 14.8075 9.17922C14.8011 8.70417 14.8075 8.22913 14.8054 7.75624C14.8054 7.66339 14.7969 7.5727 14.7926 7.48201C12.5813 7.48201 10.404 7.48201 8.19687 7.48201C8.19687 8.06502 8.20112 8.63292 8.19474 9.20298C8.18836 9.6845 7.85241 10.0322 7.40164 10.0343C6.95512 10.0365 6.60641 9.68666 6.59791 9.21161C6.5894 8.73656 6.59578 8.26152 6.59578 7.78863C6.59578 7.68714 6.59578 7.58565 6.59578 7.48201C5.55603 7.47985 4.55455 7.47985 3.5233 7.47985ZM14.8032 5.83661C14.8032 5.5084 14.8075 5.1953 14.8032 4.88004C14.7713 2.75528 12.7344 1.17466 10.7059 1.71233C9.08778 2.14203 7.93321 3.61036 8.22664 5.83661C10.4082 5.83661 12.594 5.83661 14.8032 5.83661Z" fill="black"/>
</svg>
