<svg width="68" height="46" viewBox="0 0 68 46" fill="none" xmlns="http://www.w3.org/2000/svg">
<path d="M0 27.4994C0.351282 26.7221 0.979535 26.4541 1.81045 26.4541C7.14047 26.4675 12.4637 26.4608 17.7938 26.4608C18.9489 26.4608 19.5907 27.0237 19.5367 27.955C19.4961 28.5983 19.03 29.1076 18.3815 29.1947C18.145 29.2282 17.8951 29.2215 17.6519 29.2215C12.4165 29.2215 7.17425 29.2081 1.9388 29.2349C1.08762 29.2416 0.432346 29.0339 0 28.2834C0 28.0221 0 27.7607 0 27.4994Z" fill="black"/>
<path d="M9.78854 2.82768C9.78854 3.13591 9.78854 3.37043 9.78854 3.61165C9.78854 6.1177 9.7953 8.61704 9.78179 11.1231C9.77503 12.3627 8.97789 13.0663 7.97809 12.7513C7.45117 12.5838 7.1134 12.2421 7.03909 11.6792C7.00531 11.438 6.98505 11.1968 6.98505 10.9623C6.97829 7.95368 6.97829 4.94508 6.98505 1.93649C6.98505 0.482447 7.47144 0 8.93061 0C20.3067 0 31.6828 0 43.059 0C44.5654 0 45.018 0.462345 45.0248 1.96999C45.0248 3.39053 45.0248 4.81107 45.0248 6.31872C45.3423 6.31872 45.599 6.31872 45.8557 6.31872C49.2874 6.31872 52.7192 6.32542 56.151 6.31202C56.8535 6.31202 57.4277 6.51304 57.9682 6.95528C61.0081 9.47473 64.0548 11.9808 67.1217 14.4667C67.7432 14.9693 68.0135 15.5388 68.0067 16.3295C67.9527 22.9832 67.9256 29.6303 67.8851 36.284C67.8783 37.6041 67.4257 38.0396 66.0814 38.0463C65.3045 38.0463 64.5344 38.0597 63.7575 38.0396C62.9266 38.0128 62.3322 37.45 62.3051 36.7129C62.2849 36.016 62.8321 35.4063 63.6224 35.3125C64.0751 35.2589 64.5479 35.3058 65.0546 35.3058C65.0749 35.0645 65.1019 34.8702 65.1019 34.6826C65.1424 28.8463 65.1694 23.0033 65.2235 17.1671C65.2302 16.7114 65.1086 16.4099 64.7371 16.1151C62.0282 13.9173 59.353 11.6926 56.6509 9.49483C56.4144 9.30051 56.0766 9.12629 55.7794 9.11959C52.3679 9.09279 48.9632 9.09949 45.5517 9.10619C45.4031 9.10619 45.2545 9.13969 45.0721 9.1598C45.0721 17.8706 45.0721 26.5547 45.0721 35.3192C45.9435 35.3192 46.7744 35.2924 47.6121 35.3259C48.7605 35.3728 49.4698 36.1835 49.0983 37.1082C48.9497 37.4768 48.5173 37.7649 48.1593 38.0128C47.9837 38.1334 47.6864 38.1066 47.45 38.1066C42.0727 38.1133 36.6954 38.1133 31.318 38.1066C30.2912 38.1066 29.7778 37.7649 29.5954 37.0077C29.4265 36.3243 29.8386 35.5939 30.5209 35.4264C30.8384 35.346 31.1762 35.3259 31.5072 35.3259C34.8038 35.3192 38.1005 35.3192 41.4039 35.3192C41.6606 35.3192 41.924 35.3192 42.2213 35.3192C42.2213 24.4574 42.2213 13.6693 42.2213 2.83438C31.4261 2.82768 20.658 2.82768 9.78854 2.82768Z" fill="black"/>
<path d="M47.7811 19.6531C47.7811 17.9176 47.7743 16.1888 47.7811 14.4534C47.7878 13.1802 48.254 12.7045 49.5375 12.6978C51.6587 12.6911 53.7799 12.7045 55.9011 12.6911C56.5361 12.6844 57.0427 12.8854 57.5089 13.3142C58.6776 14.3863 59.8598 15.445 61.0622 16.4837C61.6229 16.9661 61.8594 17.5491 61.8526 18.2727C61.8391 20.4906 61.8526 22.7019 61.8458 24.9198C61.8391 26.2063 61.3324 26.7089 60.0422 26.7089C56.5496 26.7089 53.0571 26.7089 49.5645 26.7089C48.2472 26.7089 47.7878 26.2465 47.7811 24.9198C47.7743 23.1642 47.7811 21.4086 47.7811 19.6531ZM58.968 23.9281C58.9951 23.8276 59.0356 23.7405 59.0356 23.6601C59.0424 22.0117 59.0559 20.37 59.0288 18.7217C59.0221 18.5005 58.8397 18.2392 58.664 18.0784C57.8264 17.3011 56.9684 16.5373 56.1037 15.7868C55.9484 15.6461 55.739 15.4853 55.5498 15.4853C53.9217 15.4585 52.2869 15.4719 50.6319 15.4719C50.6319 18.333 50.6319 21.1205 50.6319 23.9281C53.4354 23.9281 56.1916 23.9281 58.968 23.9281Z" fill="black"/>
<path d="M21.7659 33.6575C25.1369 33.6709 27.9471 36.2908 27.9403 39.8288C27.9336 43.3198 25.272 45.9934 21.7727 46.0001C18.2598 46.0068 15.5171 43.2327 15.4969 39.8355C15.4834 36.4583 18.3341 33.6642 21.7659 33.6575ZM21.7862 36.4315C19.8676 36.4315 18.3004 37.9459 18.3004 39.8154C18.2936 41.6916 19.8474 43.2193 21.7659 43.2327C23.6304 43.2461 25.1504 41.7318 25.1571 39.8355C25.1639 37.9459 23.6642 36.4315 21.7862 36.4315Z" fill="black"/>
<path d="M55.57 33.6573C58.9612 33.6439 61.7579 36.4313 61.7512 39.8219C61.7444 43.1521 59.1639 45.9999 55.5902 45.9999C52.0977 45.9999 49.3618 43.333 49.301 39.8353C49.2334 36.4917 52.145 33.6707 55.57 33.6573ZM55.57 36.4313C53.6717 36.438 52.0572 38.0194 52.0774 39.8487C52.0977 41.6914 53.7122 43.2459 55.6038 43.2392C57.475 43.2325 58.9815 41.7048 58.9747 39.8152C58.968 37.9256 57.448 36.4179 55.57 36.4313Z" fill="black"/>
<path d="M12.6935 20.2495C15.3686 20.2495 18.0438 20.2428 20.7189 20.2495C21.7592 20.2495 22.401 20.7855 22.401 21.6164C22.401 22.4406 21.7322 23.0102 20.7189 23.0035C15.2808 22.97 9.83593 22.9297 4.39782 22.8895C3.45882 22.8828 2.85083 22.3535 2.82381 21.5494C2.79679 20.7453 3.44531 20.1356 4.40458 20.1356C7.16754 20.1222 9.93051 20.1289 12.7002 20.1289C12.6935 20.1691 12.6935 20.2093 12.6935 20.2495Z" fill="black"/>
<path d="M15.3956 13.924C18.1788 13.924 20.9688 13.9173 23.752 13.9307C24.583 13.9374 25.1774 14.5136 25.2045 15.2574C25.2315 15.9476 24.6708 16.5506 23.8872 16.6645C23.671 16.698 23.4481 16.6846 23.2251 16.6846C20.2595 16.6846 17.3006 16.6846 14.335 16.6846C12.0584 16.6846 9.78185 16.6846 7.50527 16.6779C7.22155 16.6779 6.93106 16.6511 6.65409 16.5841C5.98531 16.4032 5.57323 15.8002 5.64754 15.1636C5.7286 14.4868 6.21499 13.9776 6.90404 13.9441C7.70118 13.9039 8.49832 13.924 9.2887 13.924C11.3288 13.9173 13.3622 13.9173 15.3956 13.924C15.3956 13.9173 15.3956 13.9173 15.3956 13.924Z" fill="black"/>
<path d="M9.78868 35.3125C10.5453 35.3125 11.2276 35.3058 11.9031 35.3192C12.2071 35.3259 12.5246 35.3393 12.8219 35.3996C13.4906 35.5336 13.95 36.1233 13.9298 36.7532C13.9027 37.3763 13.4434 37.9928 12.8016 38.0196C11.2411 38.0732 9.67384 38.0732 8.11334 38.0196C7.47833 37.9995 7.05274 37.5237 7.03923 36.8805C7.00545 35.0847 6.9987 33.2956 7.04598 31.4998C7.06625 30.8298 7.67424 30.3406 8.32276 30.3071C8.95101 30.2736 9.55224 30.736 9.69411 31.3993C9.75491 31.6942 9.78193 32.0024 9.78193 32.3106C9.79544 33.2688 9.78868 34.2337 9.78868 35.3125Z" fill="black"/>
</svg>
