<svg width="55" height="57" viewBox="0 0 55 57" fill="none" xmlns="http://www.w3.org/2000/svg">
<path d="M28.1273 0.00776883C29.7044 0.357366 30.8464 1.36731 31.9263 2.47826C32.4934 3.06092 33.1537 3.56589 33.6743 4.19517C34.49 5.17404 35.4611 5.35272 36.6575 5.11189C37.9471 4.85552 39.26 4.73122 40.5574 4.5603C43.2688 4.20294 45.7392 6.05969 46.1588 9.05069C46.353 10.4025 46.6249 11.7465 46.8502 13.0982C46.9745 13.8518 47.3552 14.3723 48.0388 14.7219C49.3284 15.3745 50.6025 16.0582 51.8689 16.7496C54.5103 18.1868 55.3881 20.8982 54.0907 23.6095C53.4692 24.9146 52.84 26.212 52.1874 27.5017C51.8456 28.1853 51.8456 28.8379 52.1874 29.5138C52.84 30.8034 53.4692 32.1008 54.0907 33.406C55.3881 36.1251 54.5103 38.8286 51.8611 40.2658C50.6414 40.9262 49.4217 41.5943 48.1787 42.2081C47.3474 42.612 46.9434 43.2335 46.8036 44.1347C46.555 45.7429 46.2908 47.351 45.9024 48.9359C45.3663 51.1422 43.1367 52.6882 40.8837 52.4629C39.2445 52.2998 37.6131 52.0745 35.9816 51.8181C35.228 51.7016 34.6376 51.8725 34.1093 52.393C33.0527 53.434 31.9884 54.4673 30.9086 55.485C28.7799 57.5049 25.9054 57.5049 23.7768 55.485C22.8445 54.6071 21.8734 53.7603 21.0266 52.8047C20.1798 51.8492 19.2398 51.6472 18.0356 51.888C16.7848 52.1444 15.5107 52.2532 14.2444 52.4318C11.4632 52.8281 8.95384 50.9791 8.52655 47.957C8.33233 46.6052 8.06042 45.2612 7.83513 43.9094C7.71083 43.1325 7.30684 42.612 6.59988 42.2547C5.32579 41.6176 4.07501 40.934 2.81646 40.2581C0.182829 38.8208 -0.70282 36.1095 0.586806 33.3982C1.20831 32.093 1.83759 30.7956 2.49017 29.506C2.832 28.8224 2.83976 28.1775 2.49017 27.4939C1.83759 26.2043 1.20831 24.9069 0.586806 23.6017C-0.70282 20.8904 0.175058 18.1713 2.80869 16.7341C4.0284 16.0737 5.2481 15.4056 6.49112 14.7919C7.32238 14.3879 7.72636 13.7664 7.8662 12.8652C8.11481 11.2726 8.37118 9.67996 8.75185 8.11843C9.30344 5.83439 11.502 4.30393 13.8404 4.537C15.4641 4.69237 17.0723 4.92544 18.6882 5.18181C19.434 5.29834 20.0322 5.12743 20.5605 4.60692C21.6093 3.58143 22.6736 2.57925 23.7146 1.546C24.5148 0.745808 25.4937 0.318522 26.5502 0C27.0941 0.00776883 27.6068 0.00776883 28.1273 0.00776883ZM41.0857 49.2078C41.9869 49.2233 42.6628 48.6484 42.8259 47.755C43.059 46.4654 43.3309 45.1757 43.4941 43.8706C43.7737 41.6642 44.8458 40.0949 46.889 39.1549C48.0466 38.6189 49.1498 37.974 50.2762 37.3681C51.395 36.7699 51.6591 35.9619 51.1075 34.8277C50.4782 33.5303 49.849 32.2251 49.2041 30.9355C48.3884 29.3118 48.3884 27.7036 49.2041 26.08C49.8412 24.8059 50.4627 23.524 51.0842 22.2344C51.6669 21.0225 51.4183 20.2456 50.2296 19.6163C48.9555 18.9404 47.6815 18.2568 46.3996 17.5886C44.7914 16.7418 43.8747 15.4289 43.595 13.6343C43.362 12.1505 43.0901 10.6821 42.8182 9.20606C42.6472 8.28934 41.8626 7.69891 40.9614 7.81544C39.563 8.0019 38.1646 8.17281 36.7818 8.42141C34.7852 8.78655 33.0916 8.31265 31.6621 6.84434C30.7066 5.86547 29.6966 4.93321 28.71 3.97764C27.7855 3.08423 26.9076 3.08423 25.9909 3.97764C24.9266 5.0109 23.8622 6.04415 22.7901 7.06964C21.7103 8.11066 20.4129 8.67002 18.9135 8.52241C17.2354 8.35926 15.5729 8.07958 13.9104 7.83098C12.8849 7.68337 12.0691 8.22719 11.8827 9.25268C11.6496 10.5423 11.3777 11.8319 11.2146 13.1371C10.9349 15.3434 9.86279 16.9127 7.81959 17.8528C6.66203 18.3888 5.55886 19.0336 4.43237 19.6396C3.31366 20.2378 3.04952 21.0458 3.60111 22.18C4.23039 23.4774 4.85966 24.7826 5.50448 26.0722C6.3202 27.6959 6.3202 29.304 5.50448 30.9277C4.86743 32.2018 4.24592 33.4837 3.62442 34.7733C3.04175 35.9852 3.29036 36.7621 4.47122 37.3914C5.74531 38.0673 7.0194 38.7509 8.30126 39.419C9.91717 40.2581 10.8261 41.5788 11.1136 43.3734C11.3466 44.8339 11.6185 46.2867 11.8827 47.7472C12.0614 48.7339 12.8538 49.3243 13.8016 49.1922C15.2155 48.998 16.6294 48.8038 18.0356 48.5707C19.9933 48.2444 21.6481 48.7572 23.0465 50.1711C24.0254 51.1578 25.0431 52.1133 26.0453 53.0767C26.9154 53.9157 27.8166 53.9157 28.6867 53.0767C29.6733 52.1211 30.6833 51.1966 31.6388 50.21C33.0916 48.7106 34.8163 48.2211 36.8517 48.6018C38.2579 48.8582 39.7029 49.0058 41.0857 49.2078Z" fill="black"/>
<path d="M39.9205 17.7053C39.7729 18.0315 39.6408 18.3734 39.4621 18.6841C39.3689 18.855 39.198 18.9871 39.0504 19.1347C32.0274 26.1655 24.9966 33.1885 17.9736 40.2193C17.5618 40.6311 17.1345 41.004 16.4975 40.9884C15.8216 40.9729 15.3166 40.6621 15.0292 40.0639C14.7495 39.489 14.7961 38.9064 15.1846 38.3859C15.3166 38.2072 15.472 38.0518 15.6351 37.8887C22.6737 30.8501 29.7123 23.8115 36.7508 16.7652C37.1548 16.3612 37.5665 16.0116 38.1803 16.0194C39.1125 16.0194 39.8351 16.7264 39.9205 17.7053Z" fill="black"/>
<path d="M20.7858 25.7769C17.4996 25.7924 14.7805 23.0811 14.7572 19.7716C14.7339 16.4387 17.4375 13.7119 20.7703 13.7041C24.0798 13.7041 26.7834 16.3921 26.7989 19.7016C26.8067 23.0422 24.1109 25.7613 20.7858 25.7769ZM23.4894 19.7327C23.4894 18.2178 22.293 17.0214 20.7781 17.0292C19.2632 17.0292 18.0668 18.2333 18.0745 19.7483C18.0745 21.2476 19.302 22.4829 20.7936 22.4751C22.2697 22.4673 23.4894 21.2399 23.4894 19.7327Z" fill="black"/>
<path d="M33.8996 31.2384C37.1936 31.2151 39.9127 33.8954 39.9437 37.2204C39.9748 40.53 37.2946 43.2801 34.0083 43.3034C30.6833 43.3267 27.9331 40.662 27.9098 37.3836C27.8865 33.9808 30.5357 31.2617 33.8996 31.2384ZM31.2116 37.2593C31.2038 38.7742 32.4002 39.9784 33.9073 39.9784C35.43 39.9784 36.6187 38.7975 36.6264 37.2748C36.6342 35.7754 35.43 34.548 33.9229 34.5324C32.4468 34.5246 31.2193 35.7521 31.2116 37.2593Z" fill="black"/>
</svg>
