<svg width="65" height="65" viewBox="0 0 65 65" fill="none" xmlns="http://www.w3.org/2000/svg">
<path d="M43.5493 64.9834C42.4028 64.8521 41.2476 64.7471 40.1011 64.5896C36.6791 64.1082 33.3184 63.3731 30.334 61.5352C29.5726 61.0626 28.8812 60.4412 28.2599 59.7936C27.3759 58.8659 27.0609 57.7106 27.0609 56.4241C27.0784 51.348 27.0959 46.2807 27.0521 41.2047C27.0346 39.4455 27.6735 38.0452 28.9863 36.925C30.8767 35.2972 33.1434 34.4395 35.4976 33.8093C39.8998 32.6366 44.3895 32.2953 48.9405 32.5928C52.6687 32.8379 56.3095 33.433 59.7752 34.9033C60.2041 35.0871 60.6242 35.2884 61.0268 35.5072C62.8734 36.4874 64.3962 37.7477 65.0001 39.8569C65.0001 45.7819 65.0001 51.6981 65.0001 57.6231C64.5975 58.9271 63.8974 60.0299 62.7771 60.8263C62.0945 61.3164 61.3856 61.789 60.6417 62.1653C57.9023 63.5481 54.953 64.187 51.9336 64.5983C50.8309 64.7471 49.7281 64.8609 48.6254 64.9834C46.9275 64.9834 45.2384 64.9834 43.5493 64.9834ZM46.0436 46.0007C49.3956 46.0094 52.7038 45.7031 55.9419 44.8017C57.8586 44.2678 59.7315 43.6114 61.2806 42.2811C62.5846 41.1609 62.6196 40.0144 61.2631 38.9467C60.4316 38.2903 59.4689 37.7477 58.4975 37.3188C55.6794 36.0936 52.6863 35.586 49.6406 35.3672C44.8884 35.0171 40.1799 35.2359 35.5852 36.5924C33.8435 37.1088 32.1369 37.7564 30.7541 38.9992C29.4939 40.1282 29.5026 41.1171 30.7629 42.2549C31.8481 43.2351 33.1609 43.8127 34.5174 44.2941C38.2457 45.5981 42.1228 46.0007 46.0436 46.0007ZM29.8264 45.0555C29.8264 46.1057 29.8965 47.0859 29.8089 48.0486C29.7039 49.2914 30.2903 50.0965 31.2267 50.7617C32.5833 51.7331 34.1061 52.3545 35.6902 52.7921C41.9215 54.5075 48.2053 54.5425 54.5066 53.2822C56.6246 52.8621 58.6988 52.2232 60.4929 50.9805C61.1493 50.5254 61.9807 49.8865 62.1032 49.2213C62.357 47.8911 62.182 46.4733 62.182 45.0905C55.198 49.764 37.7381 50.1315 29.8264 45.0555ZM29.8264 53.1859C29.8264 54.3324 29.8527 55.4264 29.8177 56.5204C29.7914 57.2555 30.019 57.8944 30.5879 58.3058C31.4718 58.9446 32.3732 59.601 33.3622 60.0386C36.7491 61.5439 40.3549 62.0515 44.0219 62.2003C48.0478 62.3666 52.0474 62.1216 55.9507 61.0451C57.8498 60.52 59.7052 59.8723 61.228 58.5596C61.6306 58.2182 62.112 57.7194 62.1557 57.2555C62.2783 55.9252 62.1995 54.5775 62.1995 53.2122C57.2022 56.1003 51.7148 56.8354 46.0961 56.8354C40.4512 56.8529 34.9463 56.1178 29.8264 53.1859Z" fill="#025973"/>
<path d="M2.80067 28.8734C2.80067 30.2037 2.71315 31.5164 2.84443 32.8117C2.89694 33.3018 3.36079 33.8269 3.76337 34.1858C5.15491 35.411 6.86152 36.0499 8.61189 36.5575C13.1804 37.8703 17.8363 38.1153 22.5536 37.739C22.7199 37.7215 22.8949 37.7127 23.0612 37.7215C23.7263 37.7565 24.2864 38.2554 24.3652 38.8855C24.4527 39.5856 24.0764 40.2158 23.3762 40.3733C22.8424 40.4958 22.291 40.5308 21.7397 40.5571C16.4448 40.8197 11.2287 40.4083 6.19638 38.6054C5.60126 38.3954 5.02363 38.1328 4.45476 37.8615C3.9034 37.599 3.37829 37.2839 2.74816 36.9338C2.74816 38.1153 2.76566 39.2356 2.7394 40.3646C2.7219 41.2047 3.12449 41.8086 3.73711 42.3162C5.16366 43.5065 6.85277 44.1716 8.60314 44.6792C13.1628 46.0007 17.8276 46.237 22.5361 45.8607C23.1574 45.8082 23.7263 45.8695 24.1202 46.4208C24.4265 46.8497 24.4615 47.3135 24.2339 47.7949C23.9976 48.3112 23.5425 48.5388 23.0174 48.5825C17.2412 49.0114 11.5438 48.6526 6.03885 46.6484C4.93612 46.2458 3.9034 45.6594 2.73065 45.1081C2.73065 45.3706 2.73065 45.6419 2.73065 45.922C2.7394 46.7709 2.76566 47.6111 2.7394 48.46C2.71315 49.3002 3.12449 49.9041 3.72836 50.4204C5.12866 51.6019 6.80026 52.2671 8.52437 52.7659C13.1016 54.1049 17.7926 54.35 22.5186 53.9737C23.1662 53.9212 23.8226 53.9474 24.1202 54.5775C24.3039 54.9626 24.3039 55.514 24.1902 55.9428C24.0414 56.4767 23.4988 56.6605 22.9737 56.7042C17.2587 57.1243 11.605 56.8093 6.17013 54.8051C4.78733 54.2887 3.45706 53.5273 2.2318 52.6872C0.717729 51.6369 -0.00867371 50.1316 7.81304e-05 48.1887C0.0438373 35.0172 0.0438373 21.8369 7.81304e-05 8.66539C-0.00867371 6.72248 0.778992 5.29593 2.24055 4.14944C4.22722 2.59161 6.55521 1.76019 8.96196 1.17382C13.7492 0.00106886 18.5977 -0.261486 23.4988 0.24612C26.6844 0.569938 29.8001 1.17382 32.7582 2.44283C34.3248 3.11672 35.7864 3.9569 36.8803 5.31344C37.6067 6.21488 37.9656 7.25635 37.9568 8.42034C37.9481 13.6889 37.9568 18.9488 37.9481 24.2174C37.9481 25.8365 37.1866 27.088 35.9964 28.1032C34.0797 29.7311 31.7955 30.5888 29.415 31.2101C25.0216 32.3654 20.5582 32.6979 16.0335 32.3916C12.4364 32.1466 8.9007 31.5865 5.54875 30.2037C4.6123 29.8186 3.72836 29.3285 2.80067 28.8734ZM18.9828 2.79291C18.2039 2.79291 17.4162 2.7579 16.6373 2.80166C13.3991 2.96794 10.2135 3.43179 7.15908 4.56953C5.8113 5.07714 4.49852 5.67226 3.46581 6.71373C2.51186 7.66768 2.5031 8.57787 3.4483 9.53182C3.81588 9.8994 4.22722 10.2757 4.69106 10.4945C5.98634 11.1072 7.28161 11.746 8.63815 12.1749C11.9463 13.2163 15.3771 13.5227 18.834 13.5314C22.5186 13.5402 26.1856 13.2339 29.7038 12.0524C31.1041 11.5798 32.4957 10.9496 33.7384 10.1445C35.6901 8.89294 35.6813 7.42263 33.7647 6.12736C32.7407 5.44471 31.603 4.8846 30.4477 4.46451C26.7457 3.10797 22.8861 2.7579 18.9828 2.79291ZM35.1737 12.5775C30.0977 15.5093 24.5928 16.2357 18.9566 16.227C13.3204 16.227 7.81547 15.4918 2.77441 12.5775C2.77441 13.794 2.79192 14.9492 2.76566 16.1045C2.75691 16.7783 3.04572 17.2947 3.51832 17.7148C3.87714 18.0386 4.26222 18.3449 4.66481 18.5987C6.17888 19.5527 7.85048 20.1216 9.57459 20.5679C13.6092 21.6006 17.7138 21.7844 21.8359 21.5569C24.7765 21.3993 27.6646 20.9355 30.4477 19.9378C31.9005 19.4127 33.3358 18.8263 34.4298 17.6798C34.7711 17.321 35.095 16.7959 35.1387 16.332C35.2437 15.1155 35.1737 13.8815 35.1737 12.5775ZM35.165 20.7079C30.1152 23.6223 24.6103 24.3574 18.9653 24.3487C13.3291 24.3487 7.82422 23.6135 2.73065 20.6817C2.73065 21.6706 2.79192 22.5983 2.71315 23.5173C2.60813 24.8826 3.18575 25.8978 4.33224 26.4929C5.72378 27.2193 7.15908 27.9282 8.6469 28.4008C11.9288 29.4598 15.3421 29.7486 18.7728 29.7573C22.4573 29.7661 26.1243 29.4773 29.6426 28.287C31.0429 27.8144 32.3819 27.1055 33.6947 26.4141C34.3861 26.0465 35.0512 25.4689 35.1212 24.6463C35.2437 23.3597 35.165 22.0557 35.165 20.7079Z" fill="#025973"/>
</svg>
