<svg width="54" height="54" viewBox="0 0 54 54" fill="none" xmlns="http://www.w3.org/2000/svg">
<path d="M10.5788 10.0918C12.6298 10.0918 14.5642 10.084 16.4987 10.0995C16.7861 10.0995 17.0891 10.1228 17.361 10.2005C18.1612 10.4336 18.6196 11.226 18.503 12.0884C18.402 12.8342 17.7417 13.4634 16.9648 13.4712C13.5154 13.4867 10.0583 13.4945 6.60896 13.4712C5.68447 13.4634 5.04743 12.671 5.03966 11.6378C5.03189 8.94975 5.03966 6.26174 5.03966 3.58149C5.03966 2.97552 5.03189 2.37732 5.03966 1.77135C5.06296 0.753636 5.801 -0.00770991 6.7488 5.8921e-05C7.70436 0.00782775 8.41132 0.761404 8.41909 1.78689C8.42686 3.59703 8.42686 5.40717 8.43463 7.2173C8.43463 7.23284 8.4424 7.24838 8.47348 7.35714C8.65216 7.20177 8.81531 7.07746 8.96292 6.93762C13.2047 3.1309 18.1379 0.815786 23.8092 0.209817C32.8365 -0.753518 40.5044 2.13649 46.7272 8.70892C50.5184 12.7099 52.8335 17.511 53.5793 22.988C54.8456 32.3339 51.9945 40.3047 45.1657 46.7684C40.9472 50.7616 35.8586 53.0534 30.0708 53.7215C16.2112 55.3219 3.45481 46.1624 0.580343 32.4893C0.20744 30.7336 0.137528 28.9079 0.00545755 27.1133C-0.0722308 26.0489 0.68911 25.2876 1.67575 25.2721C2.66239 25.2643 3.33828 26.0101 3.37713 27.0822C3.80441 37.1506 8.57447 44.3601 17.6951 48.6019C21.1211 50.1945 24.7958 50.6994 28.587 50.4586C38.1271 49.8371 46.533 43.3113 49.322 34.2218C52.1188 25.1011 50.0833 17.006 43.4332 10.1772C39.8906 6.53365 35.4935 4.37391 30.4593 3.66695C22.9546 2.61039 16.3899 4.69243 10.8041 9.82763C10.7497 9.88201 10.7109 9.94416 10.5788 10.0918Z" fill="#025973"/>
<path d="M42.1048 27.8279C42.1048 30.2363 42.1048 32.6524 42.1048 35.0607C42.1048 36.2183 41.794 36.6689 40.7141 37.0728C36.418 38.6888 32.1218 40.2891 27.8257 41.9128C27.2275 42.1381 26.6681 42.1381 26.0699 41.9128C21.7582 40.2814 17.4387 38.6655 13.127 37.0495C12.1404 36.6766 11.7986 36.2105 11.7986 35.1617C11.7908 30.244 11.7908 25.3341 11.7986 20.4165C11.7986 19.3988 12.1404 18.9093 13.0882 18.5519C17.4154 16.9283 21.7504 15.3123 26.0777 13.6731C26.6759 13.4478 27.2275 13.4478 27.8257 13.6731C32.1374 15.2968 36.4568 16.905 40.7685 18.5286C41.7785 18.9093 42.1048 19.3832 42.1048 20.4708C42.1048 22.9336 42.1048 25.3808 42.1048 27.8279ZM25.1998 37.9585C25.2231 37.8264 25.2386 37.7876 25.2386 37.7565C25.2386 34.1051 25.2386 30.446 25.2542 26.7947C25.2542 26.4528 25.0677 26.3752 24.8113 26.2819C23.1721 25.676 21.5407 25.0545 19.9014 24.4407C18.3554 23.8581 16.8017 23.2832 15.2168 22.6927C15.2013 22.8481 15.178 22.9491 15.178 23.0579C15.178 26.6393 15.1858 30.2207 15.1625 33.8022C15.1625 34.1906 15.3567 34.2916 15.6441 34.4004C17.5863 35.1229 19.5285 35.8609 21.4785 36.5834C22.7138 37.0418 23.9335 37.4924 25.1998 37.9585ZM28.6725 37.9585C28.8278 37.9119 28.8977 37.8963 28.9599 37.873C32.0674 36.7077 35.1672 35.5424 38.2747 34.3926C38.6399 34.2605 38.7175 34.0585 38.7175 33.7012C38.7098 30.213 38.7098 26.7248 38.7098 23.2366C38.7098 23.0734 38.6942 22.918 38.6865 22.7238C38.5156 22.7782 38.3757 22.8093 38.2359 22.8559C35.1983 23.9901 32.1684 25.1399 29.1308 26.2586C28.7268 26.4062 28.6336 26.6082 28.6336 27.0122C28.6491 30.4616 28.6414 33.9187 28.6414 37.3681C28.6414 37.539 28.6647 37.7177 28.6725 37.9585ZM35.5401 20.2456C35.4158 20.1756 35.3536 20.1368 35.2915 20.1135C32.5957 19.1035 29.9077 18.0858 27.2041 17.0914C27.041 17.0293 26.8157 17.0448 26.6448 17.1069C25.8524 17.3789 25.0755 17.6818 24.2908 17.9771C22.3331 18.7151 20.3753 19.4531 18.3632 20.2067C18.5186 20.2844 18.604 20.3388 18.705 20.3776C21.3464 21.372 23.9879 22.3664 26.637 23.3375C26.8312 23.4075 27.1032 23.3997 27.3051 23.3298C28.6414 22.8481 29.9699 22.3354 31.2983 21.8382C32.6889 21.3099 34.0873 20.7894 35.5401 20.2456Z" fill="#025973"/>
</svg>
