<svg xmlns="http://www.w3.org/2000/svg" width="24" height="24" viewBox="0 0 24 24">
    <path id="Icon" d="M398.289,61.781a.707.707,0,0,1,0,1.008.5.5,0,0,1-.234.164.892.892,0,0,1-.281.047.68.68,0,0,1-.258-.059.72.72,0,0,1-.234-.152l-5.836-5.836a10.526,10.526,0,0,1-3.07,1.84,10.291,10.291,0,0,1-7.617-.129A10.37,10.37,0,0,1,375.3,53.2a10.3,10.3,0,0,1,0-7.945,10.369,10.369,0,0,1,5.461-5.461,10.3,10.3,0,0,1,7.945,0,10.666,10.666,0,0,1,3.269,2.2,10.106,10.106,0,0,1,2.191,3.258,10.29,10.29,0,0,1,.129,7.617,10.53,10.53,0,0,1-1.84,3.07ZM375.93,49.242a8.49,8.49,0,0,0,.7,3.422,8.762,8.762,0,0,0,1.875,2.789,9.019,9.019,0,0,0,2.813,1.9,8.624,8.624,0,0,0,3.422.68,8.735,8.735,0,0,0,3.422-.68,9.1,9.1,0,0,0,2.789-1.9,8.769,8.769,0,0,0,1.875-2.789,8.49,8.49,0,0,0,.7-3.422,8.384,8.384,0,0,0-.7-3.422,8.678,8.678,0,0,0-4.664-4.687,8.492,8.492,0,0,0-3.422-.7,8.384,8.384,0,0,0-3.422.7,8.619,8.619,0,0,0-4.687,4.687,8.384,8.384,0,0,0-.7,3.422Z" transform="translate(-374.5 -39)"/>
</svg>
